<?xml version="1.0" encoding="UTF-8"?>
<svg width="167px" height="50px" viewBox="0 0 167 50" version="1.1" xmlns="http://www.w3.org/2000/svg" xmlns:xlink="http://www.w3.org/1999/xlink">
    <!-- Generator: Sketch 50 (54983) - http://www.bohemiancoding.com/sketch -->
    <title>payday-investor-logo</title>
    <desc>Created with Sketch.</desc>
    <defs></defs>
    <g id="Page-1" stroke="none" stroke-width="1" fill="none" fill-rule="evenodd">
        <g id="payday-investor-logo" fill="#FFFFFF" fill-rule="nonzero">
            <g id="Group-3" transform="translate(0.000000, 3.389831)">
                <path d="M23.6279859,25.4459184 C22.536258,20.0751287 19.1003011,16.4773246 14.4700275,13.9832537 C10.2485777,11.7102343 5.59686772,11.6355341 0.931377141,12.0776371 C-0.0378567086,12.1691067 -0.143507792,12.3566194 0.132103729,13.2728398 C2.50542516,21.1544699 7.76501169,26.2691447 15.4453861,29.033051 C17.2506415,29.6840096 19.1293934,29.8379834 21.023457,29.4522866 C21.8303863,29.2876414 22.1274343,29.0376245 21.9513491,28.5833255 C18.2290624,23.6988491 12.6923332,19.5781439 12.6923332,19.5781439 C18.5965445,22.2109437 22.7536849,27.1594488 22.7950266,27.2082326 C22.9910171,27.3271431 23.2298804,27.4079412 23.3768732,27.3545839 C23.5606142,27.2890307 23.6938264,26.8835155 23.7167941,26.6152047 C23.7520111,26.2310324 23.7060758,25.8285662 23.6279859,25.4459184" id="Fill-23"></path>
                <path d="M23.3687151,12.7112234 C21.4036603,12.7403963 19.8811458,11.7715484 18.6561004,10.2775879 C17.5380267,8.91567335 17.1599625,7.21903793 16.9606728,5.47787542 C16.9196426,5.1170525 16.9767918,5.06331292 17.3196873,5.09095042 C20.2621407,5.32894 22.4543271,6.84439626 24.006149,9.43310877 C24.3710249,10.0411338 24.5659185,10.7167171 24.576176,11.4398984 C24.5791068,11.7469817 24.5146307,11.8759567 24.3417176,11.8483192 C22.3473555,10.8764004 20.4819455,9.18130043 20.4819455,9.18130043 C21.8535274,11.1297442 23.9035734,12.2552046 23.9240885,12.2659525 C23.9797724,12.3273692 24.0266641,12.4087463 24.0178719,12.4670921 C24.0090797,12.5392567 23.8771968,12.6206338 23.7848788,12.6513421 C23.6515306,12.6943338 23.5079248,12.7096879 23.3687151,12.7112234" id="Fill-24"></path>
                <path d="M31.5620078,17.3620792 C33.1460671,12.2358094 36.7440157,9.09003769 41.3534177,7.14998957 C45.5525273,5.38263219 49.9289794,5.80735804 54.2618474,6.7377099 C55.1635889,6.93062567 55.2432427,7.12509722 54.8885577,7.99010664 C51.8421743,15.4313658 46.3716092,19.8622054 38.8736286,21.7400226 C37.1107239,22.181862 35.3312873,22.1305215 33.5924291,21.5517742 C32.8514982,21.3059621 32.5975077,21.0290347 32.8109198,20.6043088 C36.8131492,16.2341443 42.4400162,12.8021105 42.4400162,12.8021105 C36.6222806,14.7421586 32.206753,19.1278809 32.160163,19.1714425 C31.9662886,19.2663446 31.7318358,19.3207966 31.5995804,19.2538984 C31.4327582,19.1683309 31.3516015,18.7591628 31.3561102,18.4946815 C31.3636247,18.1150731 31.450793,17.72613 31.5620078,17.3620792" id="Fill-25"></path>
                <path d="M31.345348,33.3400811 C31.3524041,33.281805 31.3559322,33.2189281 31.3524041,33.1499169 C31.3365277,32.3279167 31.3224154,31.5059166 31.3083031,30.6839164 L30.920214,4.57774343 C30.9166859,4.28942994 30.9166859,3.99958287 30.9113937,3.71126938 C30.9096297,3.51957158 30.9043376,3.3263402 30.8972814,3.1346424 L30.8955174,3.08403418 L30.8937533,3.08403418 C30.879641,2.75584755 30.8549444,2.42766092 30.796731,2.10407504 C30.5885742,0.891011367 29.350217,0.00460074716 27.9654444,0 C26.5824359,0.00460074716 25.3440788,0.891011367 25.1341578,2.10407504 C25.0777085,2.42766092 25.0530119,2.75584755 25.0371356,3.08403418 L25.0353715,3.08403418 L25.0353715,3.1346424 C25.0247873,3.3263402 25.0212592,3.51957158 25.0194951,3.71126938 C25.0159671,3.99958287 25.014203,4.28942994 25.012439,4.57774343 L24.6243498,30.6839164 C24.6102375,31.5059166 24.5961252,32.3279167 24.5767207,33.1499169 C24.5749567,33.2189281 24.5784848,33.281805 24.5855409,33.3400811 L24.5767207,33.8983051 L27.9654444,33.8983051 L31.3559322,33.8983051 L31.345348,33.3400811 Z" id="Fill-26"></path>
            </g>
            <path d="M73.0508475,6.10169492 C73.0508475,6.80226339 72.9209053,7.39265297 72.6610169,7.87288136 C72.4011286,8.35310975 72.0508497,8.74011153 71.6101695,9.03389831 C71.1694893,9.32768508 70.6610198,9.5423722 70.0847458,9.6779661 C69.5084717,9.81356 68.9096076,9.88135593 68.2881356,9.88135593 L66.8474576,9.88135593 L66.8474576,14.4067797 L63.9491525,14.4067797 L63.9491525,2.40677966 L68.3559322,2.40677966 C69.0113027,2.40677966 69.6242909,2.47175076 70.1949153,2.60169492 C70.7655396,2.73163907 71.2627097,2.94067653 71.6864407,3.22881356 C72.1101716,3.51695059 72.4435016,3.89547788 72.6864407,4.36440678 C72.9293797,4.83333568 73.0508475,5.41242593 73.0508475,6.10169492 Z M70.1525424,6.11864407 C70.1525424,5.83615678 70.0960458,5.60452068 69.9830508,5.42372881 C69.8700559,5.24293695 69.7175151,5.10169542 69.5254237,5 C69.3333324,4.89830458 69.1158204,4.83050864 68.8728814,4.79661017 C68.6299423,4.76271169 68.3785324,4.74576271 68.1186441,4.74576271 L66.8474576,4.74576271 L66.8474576,7.57627119 L68.0677966,7.57627119 C68.3389844,7.57627119 68.5988688,7.55367254 68.8474576,7.50847458 C69.0960464,7.46327661 69.3192081,7.38418136 69.5169492,7.27118644 C69.7146903,7.15819153 69.8700559,7.00847551 69.9830508,6.8220339 C70.0960458,6.63559229 70.1525424,6.40113136 70.1525424,6.11864407 Z M84.4576271,14.4067797 L83.5254237,12.0508475 L78.8813559,12.0508475 L78,14.4067797 L74.8474576,14.4067797 L79.8813559,2.40677966 L82.6949153,2.40677966 L87.6779661,14.4067797 L84.4576271,14.4067797 Z M81.2372881,5.61016949 L79.7118644,9.72881356 L82.7288136,9.72881356 L81.2372881,5.61016949 Z M96.0338983,9.3220339 L96.0338983,14.4067797 L93.1355932,14.4067797 L93.1355932,9.3220339 L88.6271186,2.40677966 L92.1355932,2.40677966 L94.6949153,6.84745763 L97.2542373,2.40677966 L100.644068,2.40677966 L96.0338983,9.3220339 Z M115.288136,8.37288136 C115.288136,9.42373407 115.093222,10.3305047 114.70339,11.0932203 C114.313557,11.855936 113.799438,12.4830484 113.161017,12.9745763 C112.522596,13.4661042 111.802264,13.8276825 111,14.059322 C110.197736,14.2909616 109.384185,14.4067797 108.559322,14.4067797 L104.084746,14.4067797 L104.084746,2.40677966 L108.423729,2.40677966 C109.271191,2.40677966 110.107341,2.50564873 110.932203,2.70338983 C111.757066,2.90113093 112.491522,3.22881127 113.135593,3.68644068 C113.779664,4.14407008 114.299433,4.75705831 114.694915,5.52542373 C115.090397,6.29378915 115.288136,7.2429322 115.288136,8.37288136 Z M112.271186,8.37288136 C112.271186,7.69491186 112.161018,7.13277059 111.940678,6.68644068 C111.720338,6.24011076 111.426556,5.88418212 111.059322,5.61864407 C110.692089,5.35310602 110.274014,5.16384237 109.805085,5.05084746 C109.336156,4.93785254 108.85311,4.88135593 108.355932,4.88135593 L106.915254,4.88135593 L106.915254,11.8983051 L108.288136,11.8983051 C108.807912,11.8983051 109.307907,11.8389836 109.788136,11.720339 C110.268364,11.6016943 110.692089,11.406781 111.059322,11.1355932 C111.426556,10.8644054 111.720338,10.5028271 111.940678,10.0508475 C112.161018,9.5988678 112.271186,9.03955136 112.271186,8.37288136 Z M127.474576,14.4067797 L126.542373,12.0508475 L121.898305,12.0508475 L121.016949,14.4067797 L117.864407,14.4067797 L122.898305,2.40677966 L125.711864,2.40677966 L130.694915,14.4067797 L127.474576,14.4067797 Z M124.254237,5.61016949 L122.728814,9.72881356 L125.745763,9.72881356 L124.254237,5.61016949 Z M139.050847,9.3220339 L139.050847,14.4067797 L136.152542,14.4067797 L136.152542,9.3220339 L131.644068,2.40677966 L135.152542,2.40677966 L137.711864,6.84745763 L140.271186,2.40677966 L143.661017,2.40677966 L139.050847,9.3220339 Z M63.9491525,37.2881356 L63.9491525,25.2881356 L66.8644068,25.2881356 L66.8644068,37.2881356 L63.9491525,37.2881356 Z M79.5084746,37.2881356 L74.6779661,29.440678 L74.6271186,29.440678 L74.6949153,37.2881356 L71.8813559,37.2881356 L71.8813559,25.2881356 L75.1864407,25.2881356 L80,33.1186441 L80.0508475,33.1186441 L79.9830508,25.2881356 L82.7966102,25.2881356 L82.7966102,37.2881356 L79.5084746,37.2881356 Z M93.7627119,37.2881356 L90.8644068,37.2881356 L86.3220339,25.2881356 L89.5762712,25.2881356 L92.3559322,33.7966102 L92.4237288,33.7966102 L95.1864407,25.2881356 L98.3898305,25.2881356 L93.7627119,37.2881356 Z M101.915254,37.2881356 L101.915254,25.2881356 L109.983051,25.2881356 L109.983051,27.7457627 L104.711864,27.7457627 L104.711864,30 L109.694915,30 L109.694915,32.3220339 L104.711864,32.3220339 L104.711864,34.8135593 L110.288136,34.8135593 L110.288136,37.2881356 L101.915254,37.2881356 Z M121.084746,28.4067797 C120.836157,28.0903939 120.511301,27.838984 120.110169,27.6525424 C119.709038,27.4661008 119.322036,27.3728814 118.949153,27.3728814 C118.757061,27.3728814 118.562148,27.3898303 118.364407,27.4237288 C118.166666,27.4576273 117.988701,27.5225984 117.830508,27.6186441 C117.672316,27.7146897 117.539549,27.8389823 117.432203,27.9915254 C117.324858,28.1440686 117.271186,28.3389819 117.271186,28.5762712 C117.271186,28.779662 117.313559,28.9491519 117.398305,29.0847458 C117.483051,29.2203397 117.607344,29.3389825 117.771186,29.440678 C117.935029,29.5423734 118.129942,29.6355928 118.355932,29.720339 C118.581922,29.8050852 118.836157,29.8926549 119.118644,29.9830508 C119.525426,30.1186447 119.94915,30.2683608 120.389831,30.4322034 C120.830511,30.596046 121.231637,30.813558 121.59322,31.0847458 C121.954804,31.3559336 122.254236,31.6920884 122.491525,32.0932203 C122.728815,32.4943523 122.847458,32.9943473 122.847458,33.5932203 C122.847458,34.2824893 122.72034,34.8785286 122.466102,35.3813559 C122.211863,35.8841833 121.870059,36.2994334 121.440678,36.6271186 C121.011297,36.9548039 120.519777,37.1977393 119.966102,37.3559322 C119.412427,37.5141251 118.841811,37.5932203 118.254237,37.5932203 C117.395476,37.5932203 116.564976,37.4435043 115.762712,37.1440678 C114.960448,36.8446313 114.293788,36.4180819 113.762712,35.8644068 L115.661017,33.9322034 C115.954804,34.2937871 116.341806,34.596044 116.822034,34.8389831 C117.302262,35.0819221 117.779659,35.2033898 118.254237,35.2033898 C118.468928,35.2033898 118.677965,35.1807912 118.881356,35.1355932 C119.084747,35.0903953 119.262711,35.0169497 119.415254,34.9152542 C119.567797,34.8135588 119.689265,34.6779669 119.779661,34.5084746 C119.870057,34.3389822 119.915254,34.1355944 119.915254,33.8983051 C119.915254,33.6723153 119.858758,33.4802268 119.745763,33.3220339 C119.632768,33.163841 119.471752,33.0197747 119.262712,32.8898305 C119.053671,32.7598864 118.793787,32.6412435 118.483051,32.5338983 C118.172315,32.4265531 117.819211,32.3107351 117.423729,32.1864407 C117.039546,32.0621463 116.663844,31.9152551 116.29661,31.7457627 C115.929377,31.5762703 115.601696,31.3587584 115.313559,31.0932203 C115.025422,30.8276823 114.793786,30.5056516 114.618644,30.1271186 C114.443502,29.7485857 114.355932,29.2881383 114.355932,28.7457627 C114.355932,28.0790927 114.491524,27.5084769 114.762712,27.0338983 C115.0339,26.5593197 115.389828,26.1694931 115.830508,25.8644068 C116.271189,25.5593205 116.768359,25.3361589 117.322034,25.1949153 C117.875709,25.0536716 118.435025,24.9830508 119,24.9830508 C119.677969,24.9830508 120.370053,25.1073434 121.076271,25.3559322 C121.782489,25.604521 122.401127,25.971749 122.932203,26.4576271 L121.084746,28.4067797 Z M132.220339,27.7627119 L132.220339,37.2881356 L129.322034,37.2881356 L129.322034,27.7627119 L125.932203,27.7627119 L125.932203,25.2881356 L135.610169,25.2881356 L135.610169,27.7627119 L132.220339,27.7627119 Z M151.474576,31.2372881 C151.474576,32.1864454 151.310736,33.0536684 150.983051,33.8389831 C150.655366,34.6242977 150.200568,35.2966074 149.618644,35.8559322 C149.03672,36.415257 148.344637,36.8474561 147.542373,37.1525424 C146.740109,37.4576286 145.870061,37.6101695 144.932203,37.6101695 C143.994346,37.6101695 143.127123,37.4576286 142.330508,37.1525424 C141.533894,36.8474561 140.844636,36.415257 140.262712,35.8559322 C139.680788,35.2966074 139.22599,34.6242977 138.898305,33.8389831 C138.57062,33.0536684 138.40678,32.1864454 138.40678,31.2372881 C138.40678,30.2768314 138.57062,29.4096084 138.898305,28.6355932 C139.22599,27.8615781 139.680788,27.2033925 140.262712,26.6610169 C140.844636,26.1186414 141.533894,25.7005664 142.330508,25.4067797 C143.127123,25.1129929 143.994346,24.9661017 144.932203,24.9661017 C145.870061,24.9661017 146.740109,25.1129929 147.542373,25.4067797 C148.344637,25.7005664 149.03672,26.1186414 149.618644,26.6610169 C150.200568,27.2033925 150.655366,27.8615781 150.983051,28.6355932 C151.310736,29.4096084 151.474576,30.2768314 151.474576,31.2372881 Z M148.372881,31.2372881 C148.372881,30.7175115 148.288136,30.2316407 148.118644,29.779661 C147.949152,29.3276814 147.714691,28.9406796 147.415254,28.6186441 C147.115818,28.2966086 146.754239,28.0423738 146.330508,27.8559322 C145.906778,27.6694906 145.440681,27.5762712 144.932203,27.5762712 C144.423726,27.5762712 143.960454,27.6694906 143.542373,27.8559322 C143.124292,28.0423738 142.762713,28.2966086 142.457627,28.6186441 C142.152541,28.9406796 141.91808,29.3276814 141.754237,29.779661 C141.590395,30.2316407 141.508475,30.7175115 141.508475,31.2372881 C141.508475,31.7796637 141.593219,32.2796587 141.762712,32.7372881 C141.932204,33.1949175 142.166665,33.587569 142.466102,33.9152542 C142.765538,34.2429395 143.124292,34.4999991 143.542373,34.6864407 C143.960454,34.8728823 144.423726,34.9661017 144.932203,34.9661017 C145.440681,34.9661017 145.903953,34.8728823 146.322034,34.6864407 C146.740115,34.4999991 147.101693,34.2429395 147.40678,33.9152542 C147.711866,33.587569 147.949152,33.1949175 148.118644,32.7372881 C148.288136,32.2796587 148.372881,31.7796637 148.372881,31.2372881 Z M162.355932,37.2881356 L159.762712,32.5254237 L158.779661,32.5254237 L158.779661,37.2881356 L155.932203,37.2881356 L155.932203,25.2881356 L160.508475,25.2881356 C161.084749,25.2881356 161.64689,25.347457 162.194915,25.4661017 C162.742941,25.5847464 163.234461,25.7853093 163.669492,26.0677966 C164.104522,26.3502839 164.451976,26.7231615 164.711864,27.1864407 C164.971753,27.6497198 165.101695,28.2259853 165.101695,28.9152542 C165.101695,29.7288176 164.881358,30.4124266 164.440678,30.9661017 C163.999998,31.5197768 163.389834,31.9152531 162.610169,32.1525424 L165.745763,37.2881356 L162.355932,37.2881356 Z M162.237288,28.9661017 C162.237288,28.6836144 162.177967,28.4548031 162.059322,28.279661 C161.940677,28.1045189 161.788137,27.968927 161.601695,27.8728814 C161.415253,27.7768357 161.206216,27.7118646 160.974576,27.6779661 C160.742937,27.6440676 160.519775,27.6271186 160.305085,27.6271186 L158.762712,27.6271186 L158.762712,30.4237288 L160.135593,30.4237288 C160.372883,30.4237288 160.615818,30.403955 160.864407,30.3644068 C161.112996,30.3248586 161.338982,30.2542378 161.542373,30.1525424 C161.745764,30.0508469 161.912429,29.9039558 162.042373,29.7118644 C162.172317,29.5197731 162.237288,29.271188 162.237288,28.9661017 Z" id="PAYDAY-INVESTOR"></path>
            <path d="M133.645763,44.6 L135.750847,44.6 C135.954238,44.6 136.155084,44.6241523 136.35339,44.6724576 C136.551696,44.720763 136.728389,44.7995757 136.883475,44.9088983 C137.03856,45.0182209 137.164406,45.1593212 137.261017,45.3322034 C137.357628,45.5050856 137.405932,45.7135581 137.405932,45.9576271 C137.405932,46.2627134 137.319492,46.5144058 137.14661,46.7127119 C136.973728,46.9110179 136.747459,47.0533894 136.467797,47.1398305 L136.467797,47.1550847 C136.808476,47.2008477 137.088134,47.3330498 137.30678,47.5516949 C137.525425,47.7703401 137.634746,48.06271 137.634746,48.4288136 C137.634746,48.7237303 137.576272,48.9716092 137.459322,49.1724576 C137.342372,49.3733061 137.18856,49.5347452 136.997881,49.6567797 C136.807202,49.7788142 136.588561,49.8665252 136.341949,49.9199153 C136.095338,49.9733054 135.844917,50 135.590678,50 L133.645763,50 L133.645763,44.6 Z M134.60678,46.7966102 L135.461017,46.7966102 C135.781358,46.7966102 136.025423,46.7330515 136.19322,46.6059322 C136.361018,46.4788129 136.444915,46.2983063 136.444915,46.0644068 C136.444915,45.8203378 136.358475,45.6474581 136.185593,45.5457627 C136.012711,45.4440673 135.743222,45.3932203 135.377119,45.3932203 L134.60678,45.3932203 L134.60678,46.7966102 Z M134.60678,49.1915254 L135.468644,49.1915254 C135.590679,49.1915254 135.722881,49.1826272 135.865254,49.1648305 C136.007628,49.1470338 136.138559,49.1101698 136.258051,49.0542373 C136.377543,48.9983048 136.476695,48.9169497 136.555508,48.8101695 C136.634322,48.7033893 136.673729,48.5610178 136.673729,48.3830508 C136.673729,48.0983037 136.57712,47.9000006 136.383898,47.7881356 C136.190677,47.6762706 135.898307,47.620339 135.50678,47.620339 L134.60678,47.620339 L134.60678,49.1915254 Z M141.028814,47.6584746 L139,44.6 L140.174576,44.6 L141.532203,46.8728814 L142.905085,44.6 L144.018644,44.6 L141.989831,47.6584746 L141.989831,50 L141.028814,50 L141.028814,47.6584746 Z M150.036441,44.6 L150.867797,44.6 L153.194068,50 L152.095763,50 L151.592373,48.7644068 L149.250848,48.7644068 L148.762712,50 L147.687288,50 L150.036441,44.6 Z M151.25678,47.940678 L150.425424,45.7440678 L149.578814,47.940678 L151.25678,47.940678 Z M154.872034,44.6 L156.748305,44.6 C157.002544,44.6 157.249151,44.6266946 157.488136,44.6800847 C157.72712,44.7334748 157.939406,44.8211858 158.125,44.9432203 C158.310594,45.0652548 158.459322,45.2254227 158.571187,45.4237288 C158.683051,45.6220349 158.738983,45.8635579 158.738983,46.1483051 C158.738983,46.5398325 158.628391,46.8588971 158.407203,47.1055085 C158.186016,47.3521199 157.884748,47.5186436 157.50339,47.6050847 L158.944915,50 L157.785593,50 L156.534746,47.7118644 L155.833051,47.7118644 L155.833051,50 L154.872034,50 L154.872034,44.6 Z M156.618644,46.9262712 C156.755933,46.9262712 156.89322,46.9161018 157.030509,46.8957627 C157.167797,46.8754236 157.291101,46.8372884 157.400424,46.7813559 C157.509746,46.7254234 157.6,46.6453395 157.671187,46.5411017 C157.742373,46.4368639 157.777966,46.3033906 157.777966,46.140678 C157.777966,45.9932196 157.744916,45.8724581 157.678814,45.7783898 C157.612712,45.6843216 157.528814,45.6093223 157.427119,45.5533898 C157.325423,45.4974573 157.209746,45.4593221 157.080085,45.4389831 C156.950423,45.418644 156.824577,45.4084746 156.702542,45.4084746 L155.833051,45.4084746 L155.833051,46.9262712 L156.618644,46.9262712 Z M160.813559,44.6 L162.316102,44.6 L163.719492,48.4364407 L163.742373,48.4364407 L165.130509,44.6 L166.640678,44.6 L166.640678,50 L165.687288,50 L165.687288,45.6601695 L165.672034,45.6601695 L164.032203,50 L163.361017,50 L161.744068,45.6601695 L161.728814,45.6601695 L161.728814,50 L160.813559,50 L160.813559,44.6 Z" id="BY-ARM"></path>
            <rect id="Rectangle-4" x="63.1355932" y="47.040678" width="63.9830508" height="1.27118644"></rect>
            <path d="M153.910968,3.78249558 C154.269433,3.78249558 154.479836,3.58446425 154.479836,3.24276312 C154.479836,2.90494496 154.269433,2.71467956 153.910968,2.71467956 L153.318722,2.71467956 L153.318722,3.78249558 L153.910968,3.78249558 Z M154.659069,4.25233463 L155.340931,5.29685285 L154.429184,5.29685285 L153.949932,4.39988739 L153.910968,4.39988739 L153.318722,4.39988739 L153.318722,5.29685285 L152.531658,5.29685285 L152.531658,2.10893665 L153.910968,2.10893665 C154.760374,2.10893665 155.239626,2.50499932 155.239626,3.21558235 C155.239626,3.70095327 155.033119,4.06206923 154.659069,4.25233463 Z M156.412429,3.80191042 C156.412429,2.38462733 155.282486,1.21973712 153.821352,1.21973712 C152.348529,1.21973712 151.230275,2.40792514 151.230275,3.82132526 C151.230275,5.23860834 152.340736,6.40349855 153.80187,6.40349855 C155.270797,6.40349855 156.412429,5.21919351 156.412429,3.80191042 Z M157.20339,3.80191042 C157.20339,5.64631992 155.711085,7.20338983 153.80187,7.20338983 C151.896552,7.20338983 150.423729,5.66573475 150.423729,3.82132526 C150.423729,1.97691576 151.904344,0.423728814 153.821352,0.423728814 C155.722774,0.423728814 157.20339,1.94585202 157.20339,3.80191042 Z" id="Fill-27"></path>
        </g>
    </g>
</svg>